0
SECTION
2
HEADER
9
$INSUNITS
70
4
9
$ACADVER
1
AC1014
9
$HANDSEED
5
FFFF
0
ENDSEC
0
SECTION
2
TABLES
0
TABLE
2
VPORT
5
8
100
AcDbSymbolTable
0
ENDTAB
0
TABLE
2
LTYPE
5
5
100
AcDbSymbolTable
0
LTYPE
5
14
100
AcDbSymbolTableRecord
100
AcDbLinetypeTableRecord
2
BYBLOCK
70
0
0
LTYPE
5
15
100
AcDbSymbolTableRecord
100
AcDbLinetypeTableRecord
2
BYLAYER
70
0
0
ENDTAB
0
TABLE
2
LAYER
5
2
100
AcDbSymbolTable
70
2
0
LAYER
5
50
100
AcDbSymbolTableRecord
100
AcDbLayerTableRecord
2
0
70
0
6
CONTINUOUS
0
ENDTAB
0
TABLE
2
STYLE
5
3
100
AcDbSymbolTable
70
1
0
STYLE
5
11
100
AcDbSymbolTableRecord
100
AcDbTextStyleTableRecord
2
STANDARD
70
0
0
ENDTAB
0
TABLE
2
VIEW
5
6
100
AcDbSymbolTable
70
0
0
ENDTAB
0
TABLE
2
UCS
5
7
100
AcDbSymbolTable
70
0
0
ENDTAB
0
TABLE
2
APPID
5
9
100
AcDbSymbolTable
70
2
0
APPID
5
12
100
AcDbSymbolTableRecord
100
AcDbRegAppTableRecord
2
ACAD
70
0
0
ENDTAB
0
TABLE
2
DIMSTYLE
5
A
100
AcDbSymbolTable
70
1
0
ENDTAB
0
TABLE
2
BLOCK_RECORD
5
1
100
AcDbSymbolTable
70
1
0
BLOCK_RECORD
5
1F
100
AcDbSymbolTableRecord
100
AcDbBlockTableRecord
2
*MODEL_SPACE
0
BLOCK_RECORD
5
1B
100
AcDbSymbolTableRecord
100
AcDbBlockTableRecord
2
*PAPER_SPACE
0
ENDTAB
0
ENDSEC
0
SECTION
2
BLOCKS
0
BLOCK
5
20
100
AcDbEntity
100
AcDbBlockBegin
2
*MODEL_SPACE
0
ENDBLK
5
21
100
AcDbEntity
100
AcDbBlockEnd
0
BLOCK
5
1C
100
AcDbEntity
100
AcDbBlockBegin
2
*PAPER_SPACE
0
ENDBLK
5
1D
100
AcDbEntity
100
AcDbBlockEnd
0
ENDSEC
0
SECTION
2
ENTITIES
0
LWPOLYLINE
5
100
100
AcDbEntity
8
0
100
AcDbPolyline
90
21
70
1
43
0.0
10
-35.241757584178721
20
1.9665292540221597
42
-0.41251975724260437
10
-38.224398260111407
20
4.966479029246389
10
-38.224398260111421
20
27.21717729598388
42
0.36376058822593549
10
-40.701266006465502
20
30.171213965559165
42
-0.36376058822593516
10
-50.608736991881727
20
41.987360643860221
10
-50.608736991881749
20
43.213679080805932
42
-0.41421356237309503
10
-45.608736991881742
20
48.213679080805946
10
-44.546070989222663
20
48.213679080805925
42
0.28323689671920738
10
-35.615785439476788
20
53.713679080805932
42
-0.28323689671920715
10
-26.685499889730909
20
59.213679080805932
10
-11.860571069689431
20
59.213679080805917
42
-0.28323689671920715
10
-2.9302855199435571
20
53.713679080805932
42
0.28323689671920732
10
6.0000000298023171
20
48.213679080805925
10
6.3912630081172246
20
48.213679080805925
42
-0.41421356237309392
10
11.391263008117228
20
43.213679080805946
10
11.391263008117388
20
6.9020013809201819
42
-0.41421356237309626
10
6.3912630081173871
20
1.902001380920157
10
-17.633496406145138
20
1.9020013809186245
42
-0.006015270381815891
10
-17.705671815676993
20
1.9028697215447135
10
-24.34513033768345
20
1.9076628285065436
42
-0.013210974397727761
10
-24.503600625679276
20
1.9043924982445453
0
LWPOLYLINE
5
101
100
AcDbEntity
8
0
100
AcDbPolyline
90
4
70
1
43
0.0
10
0
20
33.000000491738319
10
0
20
28.000000417232513
10
6.0000000447034836
20
28.000000417232513
10
6.0000000447034836
20
33.000000491738319
0
LWPOLYLINE
5
102
100
AcDbEntity
8
0
100
AcDbPolyline
90
4
70
1
43
0.0
10
0
20
23.008104299525165
10
0
20
17.947703299537025
10
6.0000000447034836
20
17.947703299537029
10
6.0000000447034836
20
23.008104299525165
0
LWPOLYLINE
5
103
100
AcDbEntity
8
0
100
AcDbPolyline
90
4
70
1
43
0.0
10
-11.054646144462597
20
4.0000001490116111
10
-11.054646144462597
20
10.000000149011612
10
-16.054646144462595
20
10.000000149011612
10
-16.054646144462595
20
4.0000001490116111
0
LWPOLYLINE
5
104
100
AcDbEntity
8
0
100
AcDbPolyline
90
4
70
1
43
0.0
10
-21.054646144462595
20
4.0000001490116137
10
-21.054646144462595
20
10.000000149011612
10
-26.054646144462595
20
10.000000149011612
10
-26.054646144462595
20
4.0000001490116119
0
LWPOLYLINE
5
105
100
AcDbEntity
8
0
100
AcDbPolyline
90
4
70
1
43
0.0
10
-8.5087369918822322
20
11.852001380919964
10
-8.508736991882289
20
23.852001380919852
10
-10.808736991882258
20
23.852001380919852
10
-10.808736991882204
20
11.852001380919964
0
LWPOLYLINE
5
106
100
AcDbEntity
8
0
100
AcDbPolyline
90
6
70
1
43
0.0
10
-41.108736991881862
20
41.326872511516569
10
-42.508736991881861
20
43.75174364211297
10
-45.308736991881787
20
43.75174364211297
10
-46.708736991881779
20
41.326872511516569
10
-45.308736991881787
20
38.902001380920176
10
-42.508736991881847
20
38.902001380920176
0
LWPOLYLINE
5
107
100
AcDbEntity
8
0
100
AcDbPolyline
90
6
70
1
43
0.0
10
3.2912630081175087
20
38.902001380920147
10
6.091263008117469
20
38.90200138092014
10
7.4912630081174258
20
41.326872511516569
10
6.091263008117429
20
43.75174364211297
10
3.2912630081174776
20
43.75174364211297
10
1.8912630081175075
20
41.326872511516569
0
LWPOLYLINE
5
108
100
AcDbEntity
8
0
100
AcDbPolyline
90
4
70
1
43
0.0
10
-26.126727450393837
20
57.000000804662704
10
-26.126727450393837
20
51.000000759959221
10
-21.000000312924385
20
51.000000759959221
10
-21.000000312924385
20
57.000000804662704
0
LWPOLYLINE
5
109
100
AcDbEntity
8
0
100
AcDbPolyline
90
4
70
1
43
0.0
10
-16.000000238418579
20
57.000000804662704
10
-16.000000238418579
20
51.000000759959221
10
-11.000000163912773
20
51.000000759959221
10
-11.000000163912773
20
57.000000804662704
0
ENDSEC
0
SECTION
2
OBJECTS
0
DICTIONARY
5
C
100
AcDbDictionary
3
ACAD_GROUP
350
D
3
ACAD_MLINESTYLE
350
17
0
DICTIONARY
5
D
100
AcDbDictionary
0
DICTIONARY
5
1A
330
C
100
AcDbDictionary
0
DICTIONARY
5
17
100
AcDbDictionary
0
ENDSEC
0
EOF
