0
SECTION
2
HEADER
9
$INSUNITS
70
4
9
$ACADVER
1
AC1014
9
$HANDSEED
5
FFFF
0
ENDSEC
0
SECTION
2
TABLES
0
TABLE
2
VPORT
5
8
100
AcDbSymbolTable
0
ENDTAB
0
TABLE
2
LTYPE
5
5
100
AcDbSymbolTable
0
LTYPE
5
14
100
AcDbSymbolTableRecord
100
AcDbLinetypeTableRecord
2
BYBLOCK
70
0
0
LTYPE
5
15
100
AcDbSymbolTableRecord
100
AcDbLinetypeTableRecord
2
BYLAYER
70
0
0
ENDTAB
0
TABLE
2
LAYER
5
2
100
AcDbSymbolTable
70
2
0
LAYER
5
50
100
AcDbSymbolTableRecord
100
AcDbLayerTableRecord
2
0
70
0
6
CONTINUOUS
0
ENDTAB
0
TABLE
2
STYLE
5
3
100
AcDbSymbolTable
70
1
0
STYLE
5
11
100
AcDbSymbolTableRecord
100
AcDbTextStyleTableRecord
2
STANDARD
70
0
0
ENDTAB
0
TABLE
2
VIEW
5
6
100
AcDbSymbolTable
70
0
0
ENDTAB
0
TABLE
2
UCS
5
7
100
AcDbSymbolTable
70
0
0
ENDTAB
0
TABLE
2
APPID
5
9
100
AcDbSymbolTable
70
2
0
APPID
5
12
100
AcDbSymbolTableRecord
100
AcDbRegAppTableRecord
2
ACAD
70
0
0
ENDTAB
0
TABLE
2
DIMSTYLE
5
A
100
AcDbSymbolTable
70
1
0
ENDTAB
0
TABLE
2
BLOCK_RECORD
5
1
100
AcDbSymbolTable
70
1
0
BLOCK_RECORD
5
1F
100
AcDbSymbolTableRecord
100
AcDbBlockTableRecord
2
*MODEL_SPACE
0
BLOCK_RECORD
5
1B
100
AcDbSymbolTableRecord
100
AcDbBlockTableRecord
2
*PAPER_SPACE
0
ENDTAB
0
ENDSEC
0
SECTION
2
BLOCKS
0
BLOCK
5
20
100
AcDbEntity
100
AcDbBlockBegin
2
*MODEL_SPACE
0
ENDBLK
5
21
100
AcDbEntity
100
AcDbBlockEnd
0
BLOCK
5
1C
100
AcDbEntity
100
AcDbBlockBegin
2
*PAPER_SPACE
0
ENDBLK
5
1D
100
AcDbEntity
100
AcDbBlockEnd
0
ENDSEC
0
SECTION
2
ENTITIES
0
LWPOLYLINE
5
100
100
AcDbEntity
8
0
100
AcDbPolyline
90
4
70
1
43
0.0
10
-1.4912630081177598
20
-17.352001380919958
10
-1.4912630081177047
20
-28.852001380919848
10
0.80873699188226111
20
-28.852001380919852
10
0.80873699188220904
20
-17.352001380919958
0
LWPOLYLINE
5
101
100
AcDbEntity
8
0
100
AcDbPolyline
90
4
70
1
43
0.0
10
-20.091263008117487
20
-19.202001380919938
10
-20.091263008117444
20
-27.002001380919868
10
-17.391263008117487
20
-27.002001380919872
10
-17.391263008117519
20
-19.202001380919938
0
LWPOLYLINE
5
102
100
AcDbEntity
8
0
100
AcDbPolyline
90
6
70
1
43
0.0
10
36.308736991881801
20
-28.902001380920154
10
33.50873699188184
20
-28.902001380920154
10
32.108736991881855
20
-31.326872511516555
10
33.508736991881854
20
-33.751743642112963
10
36.308736991881801
20
-33.75174364211297
10
37.708736991881786
20
-31.326872511516566
0
LWPOLYLINE
5
103
100
AcDbEntity
8
0
100
AcDbPolyline
90
6
70
1
43
0.0
10
-10.891263008117512
20
-31.326872511516548
10
-12.291263008117511
20
-28.902001380920144
10
-15.091263008117473
20
-28.90200138092014
10
-16.491263008117429
20
-31.326872511516552
10
-15.091263008117433
20
-33.751743642112963
10
-12.291263008117479
20
-33.751743642112956
0
LWPOLYLINE
5
104
100
AcDbEntity
8
0
100
AcDbPolyline
90
14
70
1
43
0.0
10
-26.391263008117289
20
-34.098153803626332
10
-26.391263008117374
20
-14.902001380920151
10
9.0643407309862223
20
-14.902001380920161
42
-0.41421356237310414
10
10.064340730986212
20
-15.902001380920144
10
10.064340730986221
20
-17.202001380920123
42
0.41421356237309825
10
11.064340730986213
20
-18.20200138092012
10
13.06434073098619
20
-18.20200138092012
42
0.41421356237309309
10
14.064340730986167
20
-17.20200138092013
10
14.064340730986162
20
-15.90200138092014
42
-0.41421356237309698
10
15.064340730986139
20
-14.902001380920154
10
47.608736991881592
20
-14.902001380920154
10
47.608736991881671
20
-34.098153803626353
10
46.40065785769405
20
-36.190608243602988
10
-25.183183873929661
20
-36.190608243602973
0
ENDSEC
0
SECTION
2
OBJECTS
0
DICTIONARY
5
C
100
AcDbDictionary
3
ACAD_GROUP
350
D
3
ACAD_MLINESTYLE
350
17
0
DICTIONARY
5
D
100
AcDbDictionary
0
DICTIONARY
5
1A
330
C
100
AcDbDictionary
0
DICTIONARY
5
17
100
AcDbDictionary
0
ENDSEC
0
EOF
