0
SECTION
2
HEADER
9
$INSUNITS
70
4
9
$ACADVER
1
AC1014
9
$HANDSEED
5
FFFF
0
ENDSEC
0
SECTION
2
TABLES
0
TABLE
2
VPORT
5
8
100
AcDbSymbolTable
0
ENDTAB
0
TABLE
2
LTYPE
5
5
100
AcDbSymbolTable
0
LTYPE
5
14
100
AcDbSymbolTableRecord
100
AcDbLinetypeTableRecord
2
BYBLOCK
70
0
0
LTYPE
5
15
100
AcDbSymbolTableRecord
100
AcDbLinetypeTableRecord
2
BYLAYER
70
0
0
ENDTAB
0
TABLE
2
LAYER
5
2
100
AcDbSymbolTable
70
2
0
LAYER
5
50
100
AcDbSymbolTableRecord
100
AcDbLayerTableRecord
2
0
70
0
6
CONTINUOUS
0
ENDTAB
0
TABLE
2
STYLE
5
3
100
AcDbSymbolTable
70
1
0
STYLE
5
11
100
AcDbSymbolTableRecord
100
AcDbTextStyleTableRecord
2
STANDARD
70
0
0
ENDTAB
0
TABLE
2
VIEW
5
6
100
AcDbSymbolTable
70
0
0
ENDTAB
0
TABLE
2
UCS
5
7
100
AcDbSymbolTable
70
0
0
ENDTAB
0
TABLE
2
APPID
5
9
100
AcDbSymbolTable
70
2
0
APPID
5
12
100
AcDbSymbolTableRecord
100
AcDbRegAppTableRecord
2
ACAD
70
0
0
ENDTAB
0
TABLE
2
DIMSTYLE
5
A
100
AcDbSymbolTable
70
1
0
ENDTAB
0
TABLE
2
BLOCK_RECORD
5
1
100
AcDbSymbolTable
70
1
0
BLOCK_RECORD
5
1F
100
AcDbSymbolTableRecord
100
AcDbBlockTableRecord
2
*MODEL_SPACE
0
BLOCK_RECORD
5
1B
100
AcDbSymbolTableRecord
100
AcDbBlockTableRecord
2
*PAPER_SPACE
0
ENDTAB
0
ENDSEC
0
SECTION
2
BLOCKS
0
BLOCK
5
20
100
AcDbEntity
100
AcDbBlockBegin
2
*MODEL_SPACE
0
ENDBLK
5
21
100
AcDbEntity
100
AcDbBlockEnd
0
BLOCK
5
1C
100
AcDbEntity
100
AcDbBlockBegin
2
*PAPER_SPACE
0
ENDBLK
5
1D
100
AcDbEntity
100
AcDbBlockEnd
0
ENDSEC
0
SECTION
2
ENTITIES
0
CIRCLE
5
100
100
AcDbEntity
8
0
100
AcDbCircle
10
3.8000282466547297
20
-1.5000000000000024
30
0
40
2.0000000000000009
0
CIRCLE
5
101
100
AcDbEntity
8
0
100
AcDbCircle
10
87.800028246654733
20
-1.5000000000000024
30
0
40
2.000000000000004
0
CIRCLE
5
102
100
AcDbEntity
8
0
100
AcDbCircle
10
39.800028246654733
20
-1.5000000000000069
30
0
40
2.0000000000000009
0
CIRCLE
5
103
100
AcDbEntity
8
0
100
AcDbCircle
10
51.800028246654733
20
-1.499999999999998
30
0
40
1.9999999999999987
0
LINE
5
104
100
AcDbEntity
8
0
100
AcDbLine
10
7.8000282466547297
20
-1.9999999999999998
30
0
11
7.8000282466547297
21
-7
31
0
0
LINE
5
105
100
AcDbEntity
8
0
100
AcDbLine
10
35.800028246654719
20
-1.5000000000000062
30
0
11
35.800028246654719
21
-7.9999999999999947
31
0
0
LINE
5
106
100
AcDbEntity
8
0
100
AcDbLine
10
83.800028246654733
20
-1.9999999999999996
30
0
11
83.800028246654733
21
-7.0000000000000018
31
0
0
LINE
5
107
100
AcDbEntity
8
0
100
AcDbLine
10
44.800028246654726
20
-9
30
0
11
46.800028246654733
21
-8.9999999999999893
31
0
0
ARC
5
108
100
AcDbEntity
8
0
100
AcDbCircle
10
44.800028246654726
20
-8.0000000000000036
30
0
40
0.99999999999999645
100
AcDbArc
50
180
51
270
0
ARC
5
109
100
AcDbEntity
8
0
100
AcDbCircle
10
46.800028246654733
20
-7.9999999999999938
30
0
40
0.99999999999999645
100
AcDbArc
50
-90
51
0
0
ARC
5
110
100
AcDbEntity
8
0
100
AcDbCircle
10
9.8000282466547297
20
-7.0000000000000009
30
0
40
2.0000000000000009
100
AcDbArc
50
180
51
270
0
ARC
5
111
100
AcDbEntity
8
0
100
AcDbCircle
10
81.800028246654733
20
-7.0000000000000124
30
0
40
1.9999999999999929
100
AcDbArc
50
-90
51
0
0
LINE
5
112
100
AcDbEntity
8
0
100
AcDbLine
10
55.80002824665474
20
-7.9999999999999973
30
0
11
55.80002824665474
21
1.5000000000000002
31
0
0
LINE
5
113
100
AcDbEntity
8
0
100
AcDbLine
10
54.800028246654747
20
2.5000000000000044
30
0
11
48.800028246654733
21
2.5000000000000009
31
0
0
LINE
5
114
100
AcDbEntity
8
0
100
AcDbLine
10
47.800028246654733
20
1.5000000000000013
30
0
11
47.800028246654733
21
-7.9999999999999911
31
0
0
LINE
5
115
100
AcDbEntity
8
0
100
AcDbLine
10
55.80002824665474
20
-0.99999999999999989
30
0
11
55.80002824665474
21
-1.4999999999999987
31
0
0
LINE
5
116
100
AcDbEntity
8
0
100
AcDbLine
10
35.800028246654719
20
-1.5000000000000062
30
0
11
35.800028246654726
21
1.4999999999999942
31
0
0
LINE
5
117
100
AcDbEntity
8
0
100
AcDbLine
10
36.800028246654726
20
2.499999999999996
30
0
11
42.800028246654733
21
2.4999999999999938
31
0
0
LINE
5
118
100
AcDbEntity
8
0
100
AcDbLine
10
43.800028246654733
20
1.4999999999999936
30
0
11
43.800028246654733
21
-7.9999999999999973
31
0
0
LINE
5
119
100
AcDbEntity
8
0
100
AcDbLine
10
1
20
2.4999999999999938
30
0
11
6.8000282466547297
21
2.4999999999999938
31
0
0
LINE
5
120
100
AcDbEntity
8
0
100
AcDbLine
10
7.8000282466547297
20
1.4999999999999936
30
0
11
7.8000282466547297
21
-1.9999999999999998
31
0
0
LINE
5
121
100
AcDbEntity
8
0
100
AcDbLine
10
0
20
-1.9999999999999998
30
0
11
0
21
1.4999999999999938
31
0
0
LINE
5
122
100
AcDbEntity
8
0
100
AcDbLine
10
91.000000000000014
20
2.5000000000000093
30
0
11
84.800028246654733
21
2.5000000000000027
31
0
0
LINE
5
123
100
AcDbEntity
8
0
100
AcDbLine
10
83.800028246654733
20
1.5000000000000027
30
0
11
83.800028246654733
21
-1.9999999999999996
31
0
0
ARC
5
124
100
AcDbEntity
8
0
100
AcDbCircle
10
91.000000000000014
20
1.5000000000000133
30
0
40
0.99999999999999645
100
AcDbArc
50
0
51
90
0
ARC
5
125
100
AcDbEntity
8
0
100
AcDbCircle
10
84.800028246654733
20
1.5000000000000129
30
0
40
0.99999999999998979
100
AcDbArc
50
90
51
180
0
ARC
5
126
100
AcDbEntity
8
0
100
AcDbCircle
10
54.800028246654747
20
1.500000000000008
30
0
40
0.99999999999999645
100
AcDbArc
50
0
51
90
0
ARC
5
127
100
AcDbEntity
8
0
100
AcDbCircle
10
48.800028246654733
20
1.5000000000000067
30
0
40
0.99999999999999445
100
AcDbArc
50
90
51
180
0
ARC
5
128
100
AcDbEntity
8
0
100
AcDbCircle
10
42.800028246654733
20
1.4999999999999996
30
0
40
0.99999999999999645
100
AcDbArc
50
0
51
90
0
ARC
5
129
100
AcDbEntity
8
0
100
AcDbCircle
10
36.800028246654726
20
1.4999999999999993
30
0
40
0.99999999999999645
100
AcDbArc
50
90
51
180
0
ARC
5
130
100
AcDbEntity
8
0
100
AcDbCircle
10
0.99999999999999956
20
1.4999999999999942
30
0
40
0.99999999999999956
100
AcDbArc
50
89.999999999999972
51
180
0
ARC
5
131
100
AcDbEntity
8
0
100
AcDbCircle
10
6.8000282466547297
20
1.4999999999999936
30
0
40
0.99999999999999978
100
AcDbArc
50
0
51
90
0
LINE
5
132
100
AcDbEntity
8
0
100
AcDbLine
10
22
20
-10.999999999999996
30
0
11
70.000000000000014
21
-10.999999999999996
31
0
0
ARC
5
133
100
AcDbEntity
8
0
100
AcDbCircle
10
22
20
-10.999999999999996
30
0
40
5.2500000000000018
100
AcDbArc
50
-180
51
0
0
LINE
5
134
100
AcDbEntity
8
0
100
AcDbLine
10
9.8000282466547297
20
-9.0000000000000018
30
0
11
15.75
21
-9
31
0
0
LINE
5
135
100
AcDbEntity
8
0
100
AcDbLine
10
28.25
20
-8.9999999999999964
30
0
11
34.800028246654719
21
-8.9999999999999929
31
0
0
ARC
5
136
100
AcDbEntity
8
0
100
AcDbCircle
10
70.000000000000014
20
-10.999999999999996
30
0
40
5.2499999999999947
100
AcDbArc
50
180
51
360
0
LINE
5
137
100
AcDbEntity
8
0
100
AcDbLine
10
56.800028246654733
20
-9
30
0
11
63.750000000000014
21
-9
31
0
0
LINE
5
138
100
AcDbEntity
8
0
100
AcDbLine
10
76.25
20
-9.0000000000000018
30
0
11
81.800028246654733
21
-9.0000000000000053
31
0
0
LINE
5
139
100
AcDbEntity
8
0
100
AcDbLine
10
64.750000000000014
20
-9.9999999999999982
30
0
11
64.750000000000014
21
-10.999999999999996
31
0
0
LINE
5
140
100
AcDbEntity
8
0
100
AcDbLine
10
75.25
20
-10.000000000000002
30
0
11
75.25
21
-10.999999999999998
31
0
0
LINE
5
141
100
AcDbEntity
8
0
100
AcDbLine
10
27.249999999999996
20
-9.9999999999999964
30
0
11
27.250000000000007
21
-10.999999999999996
31
0
0
LINE
5
142
100
AcDbEntity
8
0
100
AcDbLine
10
16.75
20
-10
30
0
11
16.75
21
-10.999999999999998
31
0
0
ARC
5
143
100
AcDbEntity
8
0
100
AcDbCircle
10
15.75
20
-9.9999999999999982
30
0
40
1.0000000000000009
100
AcDbArc
50
0
51
90
0
ARC
5
144
100
AcDbEntity
8
0
100
AcDbCircle
10
28.25
20
-9.9999999999999964
30
0
40
0.99999999999999978
100
AcDbArc
50
90
51
180
0
ARC
5
145
100
AcDbEntity
8
0
100
AcDbCircle
10
34.800028246654719
20
-7.9999999999999947
30
0
40
0.99999999999999867
100
AcDbArc
50
-90
51
0
0
ARC
5
146
100
AcDbEntity
8
0
100
AcDbCircle
10
76.25
20
-10.000000000000002
30
0
40
0.99999999999999978
100
AcDbArc
50
90
51
180
0
ARC
5
147
100
AcDbEntity
8
0
100
AcDbCircle
10
63.750000000000014
20
-9.9999999999999982
30
0
40
0.99999999999999645
100
AcDbArc
50
0
51
90
0
ARC
5
148
100
AcDbEntity
8
0
100
AcDbCircle
10
56.800028246654733
20
-8.0000000000000036
30
0
40
0.99999999999999645
100
AcDbArc
50
180
51
270
0
LINE
5
149
100
AcDbEntity
8
0
100
AcDbLine
10
96.999999949418111
20
-26.000000000000028
30
0
11
117.5676537832982
21
-26.000000000000028
31
0
0
LINE
5
150
100
AcDbEntity
8
0
100
AcDbLine
10
120.06765378329732
20
-28.500000000000043
30
0
11
120.0676537832996
21
-40.500000000000007
31
0
0
LINE
5
151
100
AcDbEntity
8
0
100
AcDbLine
10
-4.9323462167003962
20
-26.000000000000014
30
0
11
-25.432346216700399
21
-26.000000000000014
31
0
0
LINE
5
152
100
AcDbEntity
8
0
100
AcDbLine
10
-27.932346216700399
20
-28.500000000000014
30
0
11
-27.932346216700402
21
-40.500000000000014
31
0
0
LINE
5
153
100
AcDbEntity
8
0
100
AcDbLine
10
73.067653783299619
20
-38.000000000000007
30
0
11
73.067653783299619
21
-30.000000000000018
31
0
0
LINE
5
154
100
AcDbEntity
8
0
100
AcDbLine
10
68.067653783299619
20
-25.000000000000018
30
0
11
24.067653783299583
21
-25.000000000000018
31
0
0
LINE
5
155
100
AcDbEntity
8
0
100
AcDbLine
10
19.067653783299608
20
-30.000000000000007
30
0
11
19.067653783299598
21
-38.000000000000014
31
0
0
LINE
5
156
100
AcDbEntity
8
0
100
AcDbLine
10
-25.432346216700402
20
-43.000000000000014
30
0
11
14.067653783299598
21
-43.000000000000014
31
0
0
LINE
5
157
100
AcDbEntity
8
0
100
AcDbLine
10
78.067653783299619
20
-43.000000000000014
30
0
11
117.56765378329962
21
-43.000000000000014
31
0
0
ARC
5
158
100
AcDbEntity
8
0
100
AcDbCircle
10
14.067653783299603
20
-38.000000000000014
30
0
40
5
100
AcDbArc
50
-90.000000000000057
51
0
0
ARC
5
159
100
AcDbEntity
8
0
100
AcDbCircle
10
24.067653783299598
20
-30.000000000000007
30
0
40
4.9999999999999911
100
AcDbArc
50
90.000000000000171
51
180
0
ARC
5
160
100
AcDbEntity
8
0
100
AcDbCircle
10
68.067653783299619
20
-30.000000000000007
30
0
40
4.9999999999999911
100
AcDbArc
50
0
51
90
0
ARC
5
161
100
AcDbEntity
8
0
100
AcDbCircle
10
78.067653783299633
20
-38
30
0
40
5.0000000000000178
100
AcDbArc
50
180
51
269.99999999999983
0
ARC
5
162
100
AcDbEntity
8
0
100
AcDbCircle
10
-4.9323462167003962
20
-21.000000000000014
30
0
40
5
100
AcDbArc
50
270
51
350.56396407230704
0
ARC
5
163
100
AcDbEntity
8
0
100
AcDbCircle
10
96.999999949418111
20
-21.000000000000028
30
0
40
4.999999999999992
100
AcDbArc
50
179.99185013949392
51
270
0
CIRCLE
5
164
100
AcDbEntity
8
0
100
AcDbCircle
10
-24.932346216700402
20
-30.000000000000018
30
0
40
2.2499999999999973
0
CIRCLE
5
165
100
AcDbEntity
8
0
100
AcDbCircle
10
-2.4323462167003966
20
-40.000000000000014
30
0
40
2.25
0
CIRCLE
5
166
100
AcDbEntity
8
0
100
AcDbCircle
10
94.567653783299605
20
-40.000000000000014
30
0
40
2.2499999999999947
0
CIRCLE
5
167
100
AcDbEntity
8
0
100
AcDbCircle
10
117.0676537832996
20
-30.000000000000007
30
0
40
2.2499999999999969
0
ARC
5
168
100
AcDbEntity
8
0
100
AcDbCircle
10
-25.432346216700399
20
-28.500000000000014
30
0
40
2.5
100
AcDbArc
50
90
51
180
0
ARC
5
169
100
AcDbEntity
8
0
100
AcDbCircle
10
-25.432346216700402
20
-40.500000000000014
30
0
40
2.5
100
AcDbArc
50
180
51
270
0
ARC
5
170
100
AcDbEntity
8
0
100
AcDbCircle
10
117.5676537832982
20
-28.500000000000043
30
0
40
2.4999999999991118
100
AcDbArc
50
0
51
90
0
ARC
5
171
100
AcDbEntity
8
0
100
AcDbCircle
10
117.56765378329959
20
-40.5
30
0
40
2.5000000000000178
100
AcDbArc
50
270.00000000000068
51
360
0
LINE
5
172
100
AcDbEntity
8
0
100
AcDbLine
10
0
20
-1.9999999999999998
30
0
11
-2.4286128663675299e-15
21
-21.819732150523166
31
0
0
LINE
5
173
100
AcDbEntity
8
0
100
AcDbLine
10
92
20
0
30
0
11
92.000000000000014
21
-20.99928879050287
31
0
0
ENDSEC
0
SECTION
2
OBJECTS
0
DICTIONARY
5
C
100
AcDbDictionary
3
ACAD_GROUP
350
D
3
ACAD_MLINESTYLE
350
17
0
DICTIONARY
5
D
100
AcDbDictionary
0
DICTIONARY
5
1A
330
C
100
AcDbDictionary
0
DICTIONARY
5
17
100
AcDbDictionary
0
ENDSEC
0
EOF
