0
SECTION
2
HEADER
9
$INSUNITS
70
4
9
$ACADVER
1
AC1014
9
$HANDSEED
5
FFFF
0
ENDSEC
0
SECTION
2
TABLES
0
TABLE
2
VPORT
5
8
100
AcDbSymbolTable
0
ENDTAB
0
TABLE
2
LTYPE
5
5
100
AcDbSymbolTable
0
LTYPE
5
14
100
AcDbSymbolTableRecord
100
AcDbLinetypeTableRecord
2
BYBLOCK
70
0
0
LTYPE
5
15
100
AcDbSymbolTableRecord
100
AcDbLinetypeTableRecord
2
BYLAYER
70
0
0
ENDTAB
0
TABLE
2
LAYER
5
2
100
AcDbSymbolTable
70
2
0
LAYER
5
50
100
AcDbSymbolTableRecord
100
AcDbLayerTableRecord
2
0
70
0
6
CONTINUOUS
0
ENDTAB
0
TABLE
2
STYLE
5
3
100
AcDbSymbolTable
70
1
0
STYLE
5
11
100
AcDbSymbolTableRecord
100
AcDbTextStyleTableRecord
2
STANDARD
70
0
0
ENDTAB
0
TABLE
2
VIEW
5
6
100
AcDbSymbolTable
70
0
0
ENDTAB
0
TABLE
2
UCS
5
7
100
AcDbSymbolTable
70
0
0
ENDTAB
0
TABLE
2
APPID
5
9
100
AcDbSymbolTable
70
2
0
APPID
5
12
100
AcDbSymbolTableRecord
100
AcDbRegAppTableRecord
2
ACAD
70
0
0
ENDTAB
0
TABLE
2
DIMSTYLE
5
A
100
AcDbSymbolTable
70
1
0
ENDTAB
0
TABLE
2
BLOCK_RECORD
5
1
100
AcDbSymbolTable
70
1
0
BLOCK_RECORD
5
1F
100
AcDbSymbolTableRecord
100
AcDbBlockTableRecord
2
*MODEL_SPACE
0
BLOCK_RECORD
5
1B
100
AcDbSymbolTableRecord
100
AcDbBlockTableRecord
2
*PAPER_SPACE
0
ENDTAB
0
ENDSEC
0
SECTION
2
BLOCKS
0
BLOCK
5
20
100
AcDbEntity
100
AcDbBlockBegin
2
*MODEL_SPACE
0
ENDBLK
5
21
100
AcDbEntity
100
AcDbBlockEnd
0
BLOCK
5
1C
100
AcDbEntity
100
AcDbBlockBegin
2
*PAPER_SPACE
0
ENDBLK
5
1D
100
AcDbEntity
100
AcDbBlockEnd
0
ENDSEC
0
SECTION
2
ENTITIES
0
LWPOLYLINE
5
100
100
AcDbEntity
8
0
100
AcDbPolyline
90
4
70
1
43
0.0
10
-72.100000000000023
20
7.2843438839170283
42
-0.99999999999999989
10
-72.099999999999994
20
9.8843438839170243
10
-68.100000000000009
20
9.8843438839170386
42
-0.99999999999999989
10
-68.099999999999994
20
7.2843438839170274
0
LWPOLYLINE
5
101
100
AcDbEntity
8
0
100
AcDbPolyline
90
4
70
1
43
0.0
10
-49.90000000000029
20
7.2843438839170283
42
-0.99999999999999989
10
-49.900000000000304
20
9.8843438839170279
10
-45.900000000000311
20
9.8843438839170279
42
-0.99999999999999989
10
-45.900000000000311
20
7.2843438839170194
0
LWPOLYLINE
5
102
100
AcDbEntity
8
0
100
AcDbPolyline
90
4
70
1
43
0.0
10
-49.900000000000297
20
29.916013883916733
42
-0.99999999999999989
10
-49.900000000000311
20
32.516013883916727
10
-45.900000000000304
20
32.516013883916742
42
-0.99999999999999989
10
-45.900000000000304
20
29.91601388391674
0
LWPOLYLINE
5
103
100
AcDbEntity
8
0
100
AcDbPolyline
90
4
70
1
43
0.0
10
-54.499999999999993
20
33.100178883916733
10
-65.5
20
33.100178883916733
10
-65.5
20
29.600178883916733
10
-54.499999999999993
20
29.600178883916733
0
CIRCLE
5
104
100
AcDbEntity
8
0
100
AcDbCircle
10
-17.000000000000004
20
15.471809070202339
30
4.4408920985006262e-15
40
3.4499999999999993
0
LWPOLYLINE
5
105
100
AcDbEntity
8
0
100
AcDbPolyline
90
4
70
1
43
0.0
10
-68.099999999999994
20
32.516013883916742
10
-72.099999999999994
20
32.516013883916749
42
0.99999999999999989
10
-72.099999999999994
20
29.916013883916751
10
-68.099999999999994
20
29.916013883916737
42
0.99999999999999989
0
CIRCLE
5
106
100
AcDbEntity
8
0
100
AcDbCircle
10
-24.928369813714539
20
23.40017888391688
30
4.4408920985006262e-15
40
3.4499999999999993
0
CIRCLE
5
107
100
AcDbEntity
8
0
100
AcDbCircle
10
-17.000000000000004
20
31.328548697631415
30
0
40
3.4499999999999993
0
CIRCLE
5
108
100
AcDbEntity
8
0
100
AcDbCircle
10
-9.0716301862854625
20
23.400178883916887
30
4.4408920985006262e-15
40
3.4500000000000002
0
LWPOLYLINE
5
109
100
AcDbEntity
8
0
100
AcDbPolyline
90
12
70
1
43
0.0
10
-77
20
37.331090346148422
10
2.9999999999999982
20
37.331090346148422
10
2.9999999999999982
20
-0.66890965385157541
10
-0.018928643346179941
20
-0.66890965385155099
10
-0.018928643346178831
20
3.0810903461484522
10
-21.646781467041141
20
3.0810903461484518
42
-0.39601219183569064
10
-25.638961322708973
20
-0.66890965385157541
10
-48.361038677291035
20
-0.66890965385157986
42
-0.39601219183568986
10
-52.353218532958863
20
3.0810903461484522
10
-73.981071356653842
20
3.0810903461484522
10
-73.981071356653842
20
-0.66890965385155543
10
-77
20
-0.66890965385157042
0
ENDSEC
0
SECTION
2
OBJECTS
0
DICTIONARY
5
C
100
AcDbDictionary
3
ACAD_GROUP
350
D
3
ACAD_MLINESTYLE
350
17
0
DICTIONARY
5
D
100
AcDbDictionary
0
DICTIONARY
5
1A
330
C
100
AcDbDictionary
0
DICTIONARY
5
17
100
AcDbDictionary
0
ENDSEC
0
EOF
