# Blender v2.79 (sub 0) OBJ File: ''
# www.blender.org
mtllib ID 0.mtl
o 0
v -0.000000 -0.500000 0.373904
v -0.000000 -0.500000 -0.373904
v 0.000000 0.500000 0.373904
v 0.000000 0.500000 -0.373904
v -0.000000 -0.500000 0.373904
v -0.000000 -0.500000 -0.373904
v 0.000000 0.500000 0.373904
v 0.000000 0.500000 -0.373904
v -0.000000 -0.500000 0.373904
v -0.000000 -0.500000 -0.373904
v 0.000000 0.500000 0.373904
v 0.000000 0.500000 -0.373904
v 0.309591 -0.500000 0.373904
v 0.309591 -0.500000 -0.373904
v 0.309591 0.500000 0.373904
v 0.309591 0.500000 -0.373904
vt 0.000000 0.000000
vt 0.000000 1.000000
vt 1.000000 1.000000
vt 1.000000 0.000000
vt 1.000000 0.000000
vt 1.000000 1.000000
vt 1.000000 1.000000
vt 1.000000 0.000000
vt 0.000000 0.000000
vt 0.000000 1.000000
vt 0.000000 1.000000
vt 0.000000 1.000000
vt 1.000000 1.000000
vt 0.000000 0.000000
vt 0.000000 0.000000
vt 1.000000 0.000000
vn -1.0000 0.0000 0.0000
vn 0.0000 0.0000 1.0000
vn 0.0000 1.0000 0.0000
vn 1.0000 -0.0000 -0.0000
vn 0.0000 -1.0000 0.0000
vn 0.0000 0.0000 -1.0000
usemtl 0
s off
f 1/1/1 3/2/1 4/3/1 2/4/1
f 6/5/2 8/6/2 12/7/2 10/8/2
f 2/4/2 4/3/2 8/6/2 6/5/2
f 3/2/2 1/1/2 5/9/2 7/10/2
f 4/3/2 3/2/2 7/10/2 8/6/2
f 1/1/2 2/4/2 6/5/2 5/9/2
f 12/7/3 11/11/3 15/12/3 16/13/3
f 7/10/2 5/9/2 9/14/2 11/11/2
f 8/6/2 7/10/2 11/11/2 12/7/2
f 5/9/2 6/5/2 10/8/2 9/14/2
f 13/15/4 14/16/4 16/13/4 15/12/4
f 9/14/5 10/8/5 14/16/5 13/15/5
f 10/8/6 12/7/6 16/13/6 14/16/6
f 11/11/2 9/14/2 13/15/2 15/12/2
