0
SECTION
2
HEADER
9
$INSUNITS
70
4
9
$ACADVER
1
AC1014
9
$HANDSEED
5
FFFF
0
ENDSEC
0
SECTION
2
TABLES
0
TABLE
2
VPORT
5
8
100
AcDbSymbolTable
0
ENDTAB
0
TABLE
2
LTYPE
5
5
100
AcDbSymbolTable
0
LTYPE
5
14
100
AcDbSymbolTableRecord
100
AcDbLinetypeTableRecord
2
BYBLOCK
70
0
0
LTYPE
5
15
100
AcDbSymbolTableRecord
100
AcDbLinetypeTableRecord
2
BYLAYER
70
0
0
ENDTAB
0
TABLE
2
LAYER
5
2
100
AcDbSymbolTable
70
2
0
LAYER
5
50
100
AcDbSymbolTableRecord
100
AcDbLayerTableRecord
2
0
70
0
6
CONTINUOUS
0
ENDTAB
0
TABLE
2
STYLE
5
3
100
AcDbSymbolTable
70
1
0
STYLE
5
11
100
AcDbSymbolTableRecord
100
AcDbTextStyleTableRecord
2
STANDARD
70
0
0
ENDTAB
0
TABLE
2
VIEW
5
6
100
AcDbSymbolTable
70
0
0
ENDTAB
0
TABLE
2
UCS
5
7
100
AcDbSymbolTable
70
0
0
ENDTAB
0
TABLE
2
APPID
5
9
100
AcDbSymbolTable
70
2
0
APPID
5
12
100
AcDbSymbolTableRecord
100
AcDbRegAppTableRecord
2
ACAD
70
0
0
ENDTAB
0
TABLE
2
DIMSTYLE
5
A
100
AcDbSymbolTable
70
1
0
ENDTAB
0
TABLE
2
BLOCK_RECORD
5
1
100
AcDbSymbolTable
70
1
0
BLOCK_RECORD
5
1F
100
AcDbSymbolTableRecord
100
AcDbBlockTableRecord
2
*MODEL_SPACE
0
BLOCK_RECORD
5
1B
100
AcDbSymbolTableRecord
100
AcDbBlockTableRecord
2
*PAPER_SPACE
0
ENDTAB
0
ENDSEC
0
SECTION
2
BLOCKS
0
BLOCK
5
20
100
AcDbEntity
100
AcDbBlockBegin
2
*MODEL_SPACE
0
ENDBLK
5
21
100
AcDbEntity
100
AcDbBlockEnd
0
BLOCK
5
1C
100
AcDbEntity
100
AcDbBlockBegin
2
*PAPER_SPACE
0
ENDBLK
5
1D
100
AcDbEntity
100
AcDbBlockEnd
0
ENDSEC
0
SECTION
2
ENTITIES
0
LWPOLYLINE
5
100
100
AcDbEntity
8
0
100
AcDbPolyline
90
20
70
1
43
0.0
10
0.094798167363023822
20
30.677918558078279
42
-0.36976629078065554
10
3.0592488546018926
20
33.217449098798923
10
16.940751145398107
20
33.217449098798923
42
-0.3697662907806557
10
19.905201832636973
20
30.677918558078293
42
-0.015767357228659077
10
19.966873563711509
20
30.177272727272715
42
0.38779458240880033
10
22.954451150103324
20
27.449999999999992
10
51.045548849896676
20
27.449999999999992
42
0.38779458240879988
10
54.033126436288498
20
30.177272727272708
42
-0.015767357228659077
10
54.094798167363038
20
30.677918558078279
42
-0.36976629078065471
10
57.05924885460189
20
33.217449098798923
10
70.940751145398124
20
33.217449098798937
42
-0.36976629078065565
10
73.905201832637005
20
30.677918558078282
42
-0.038543815526319448
10
74.000000000000028
20
29.449999999999999
10
74
20
0
10
77.000000000000327
20
0
10
75.678672211761025
20
-2.2886068626829026
10
-1.6786722117610209
20
-2.2886068626829017
10
-3.0000000000003175
20
1.1004152937082792e-15
10
0
20
0
10
-5.6898930012039273e-15
20
29.449999999999989
42
-0.038543815526319671
0
LWPOLYLINE
5
101
100
AcDbEntity
8
0
100
AcDbPolyline
90
6
70
1
43
0.0
10
62.699999999999996
20
5
10
59.900000000000006
20
5
10
58.5
20
2.5751288694035712
10
59.899999999999984
20
0.15025773880714027
10
62.699999999999974
20
0.15025773880713578
10
64.09999999999998
20
2.5751288694035646
0
LWPOLYLINE
5
102
100
AcDbEntity
8
0
100
AcDbPolyline
90
6
70
1
43
0.0
10
15.500000000000004
20
2.5751288694035712
10
14.099999999999998
20
5
10
11.299999999999994
20
5
10
9.9000000000000057
20
2.5751288694035646
10
11.300000000000011
20
0.15025773880713583
10
14.100000000000005
20
0.15025773880714022
0
ENDSEC
0
SECTION
2
OBJECTS
0
DICTIONARY
5
C
100
AcDbDictionary
3
ACAD_GROUP
350
D
3
ACAD_MLINESTYLE
350
17
0
DICTIONARY
5
D
100
AcDbDictionary
0
DICTIONARY
5
1A
330
C
100
AcDbDictionary
0
DICTIONARY
5
17
100
AcDbDictionary
0
ENDSEC
0
EOF
